<svg width="170" height="82" viewBox="0 0 170 82" fill="none" xmlns="http://www.w3.org/2000/svg">
<path d="M12.3053 61.8516L12.2886 54.1044L8.44839 60.5158H7.48L3.63982 54.2046V61.8516H1.56946V50.1641H3.35598L7.99759 57.9112L12.5557 50.1641H14.3422L14.3589 61.8516H12.3053ZM36.8001 61.8516L34.4125 58.4288C34.3123 58.4399 34.1621 58.4455 33.9617 58.4455H31.3237V61.8516H29.1531V50.1641H33.9617C34.9746 50.1641 35.854 50.331 36.5997 50.665C37.3566 50.9989 37.9355 51.4775 38.3362 52.1008C38.7369 52.7242 38.9372 53.4644 38.9372 54.3215C38.9372 55.2008 38.7202 55.9577 38.2861 56.5922C37.8631 57.2267 37.2509 57.6997 36.4495 58.0114L39.1376 61.8516H36.8001ZM36.75 54.3215C36.75 53.5757 36.5051 53.0025 36.0154 52.6017C35.5256 52.201 34.8077 52.0007 33.8615 52.0007H31.3237V56.659H33.8615C34.8077 56.659 35.5256 56.4586 36.0154 56.0579C36.5051 55.6461 36.75 55.0672 36.75 54.3215ZM53.0029 50.1641H55.1735V61.8516H53.0029V50.1641ZM72.3429 52.0007H68.4693V50.1641H78.387V52.0007H74.5134V61.8516H72.3429V52.0007ZM94.1871 52.0007H90.3136V50.1641H100.231V52.0007H96.3577V61.8516H94.1871V52.0007ZM113.497 50.1641H115.668V61.8516H113.497V50.1641ZM134.49 56.9595L132.637 58.8629V61.8516H130.466V50.1641H132.637V56.1581L138.414 50.1641H140.852L135.943 55.39L141.152 61.8516H138.614L134.49 56.9595Z" fill="white"/>
<g clip-path="url(#clip0_1_2957)">
<path d="M163.927 0H169.998L163.927 10.625V0Z" fill="white"/>
<path d="M12.1412 0H1.51619V34.9107H12.1412V0Z" fill="white"/>
<path d="M163.927 0H7.58762V10.625H163.927V0Z" fill="white"/>
<path d="M148.748 24.2856H9.10547V34.9106H148.748V24.2856Z" fill="white"/>
<path d="M150.266 34.9106L156.338 24.2856H145.713L145.758 34.9106H150.266Z" fill="white"/>
</g>
<defs>
<clipPath id="clip0_1_2957">
<rect width="168.482" height="34.9107" fill="white" transform="translate(1.51786)"/>
</clipPath>
</defs>
</svg>
